# xmcd
#
# Track frame offsets:
#	150
#	11232
#	26807
#	42724
#	55290
#	71416
#	86260
#	99115
#	111994
#	125800
#	146022
#	161151
#	175702
#	188090
#	198657
#	212007
#	227795
#	237372
#	248440
#	264653
#	282053
#	296681
#	311769
#	340036
#
# Disc length: 4784 seconds
#
# Revision: 0
# Processed by: cddbd v1.5.2PL0 Copyright (c) Steve Scherf et al.
# Submitted via: dBpowerAMP V4.0
#
DISCID=6612ae18
DTITLE=Aretha Franklin - Best Of CD 1
DYEAR=1900
DGENRE=Soul
TTITLE0=Respect
TTITLE1=Think
TTITLE2=Spanish Harlem
TTITLE3=(You Make Me Feel Like) A Natural Woman
TTITLE4=I Say A Little Prayer
TTITLE5=Son Of A Preacher Man
TTITLE6=I Never Loved A Man (The Way I Love You)
TTITLE7=Chain Of Fools
TTITLE8=Don't Play That Song (You Lied)
TTITLE9=Angel
TTITLE10=Border Song (Holy Moses)
TTITLE11=Rock Steady
TTITLE12=See Saw
TTITLE13=The House That Jack Built
TTITLE14=Oh No Not My Baby
TTITLE15=Until You Come Back To Me (Thats What I'm Gonna Do)
TTITLE16=Good Times
TTITLE17=(Sweet Sweet Baby) Since You Been Gone
TTITLE18=You're All I Need To Get By
TTITLE19=Aint Nothing Like The Real Thing
TTITLE20=Do Right Woman, Do Right Man
TTITLE21=Share Your Love With Me
TTITLE22=Something He Can Feel
TTITLE23=Aint No Way
EXTD=
EXTT0=
EXTT1=
EXTT2=
EXTT3=
EXTT4=
EXTT5=
EXTT6=
EXTT7=
EXTT8=
EXTT9=
EXTT10=
EXTT11=
EXTT12=
EXTT13=
EXTT14=
EXTT15=
EXTT16=
EXTT17=
EXTT18=
EXTT19=
EXTT20=
EXTT21=
EXTT22=
EXTT23=
PLAYORDER=
